HIERARCHY
ROOT pelvis
{
  OFFSET 0.181838 -26.641924 2.013742
  CHANNELS 6 Xposition Yposition Zposition Zrotation Yrotation Xrotation
  JOINT left_hip
  {
    OFFSET 6.420887 -9.265385 -2.291165
    CHANNELS 3 Zrotation Yrotation Xrotation
    JOINT left_knee
    {
      OFFSET 4.829535 -42.424476 0.937445
      CHANNELS 3 Zrotation Yrotation Xrotation
      JOINT left_ankle
      {
        OFFSET -1.600232 -46.824226 -4.092603
        CHANNELS 3 Zrotation Yrotation Xrotation
        JOINT left_foot
        {
          OFFSET 4.929668 -6.733517 13.412784
          CHANNELS 3 Zrotation Yrotation Xrotation
          End Site
          {
            OFFSET 0.000000 0.000000 0.000000
          }
        }
      }
    }
  }
  JOINT right_hip
  {
    OFFSET -6.492824 -10.010968 -1.952781
    CHANNELS 3 Zrotation Yrotation Xrotation
    JOINT right_knee
    {
      OFFSET -5.039100 -42.448609 -0.653631
      CHANNELS 3 Zrotation Yrotation Xrotation
      JOINT right_ankle
      {
        OFFSET 2.179444 -46.491981 -3.805516
        CHANNELS 3 Zrotation Yrotation Xrotation
        JOINT right_foot
        {
          OFFSET -4.252404 -6.956109 14.428835
          CHANNELS 3 Zrotation Yrotation Xrotation
          End Site
          {
            OFFSET 0.000000 0.000000 0.000000
          }
        }
      }
    }
  }
  JOINT spine1
  {
    OFFSET 0.435145 13.839211 -3.630818
    CHANNELS 3 Zrotation Yrotation Xrotation
    JOINT spine2
    {
      OFFSET 0.343761 15.588624 3.402218
      CHANNELS 3 Zrotation Yrotation Xrotation
      JOINT spine3
      {
        OFFSET -0.371286 6.148425 0.564505
        CHANNELS 3 Zrotation Yrotation Xrotation
        JOINT neck
        {
          OFFSET -1.634386 22.948153 -3.298267
          CHANNELS 3 Zrotation Yrotation Xrotation
          JOINT head
          {
            OFFSET 1.028768 9.382157 6.139421
            CHANNELS 3 Zrotation Yrotation Xrotation
            End Site
            {
              OFFSET 0.000000 0.000000 0.000000
            }
          }
        }
        JOINT left_collar
        {
          OFFSET 7.685823 12.324401 -2.373022
          CHANNELS 3 Zrotation Yrotation Xrotation
          JOINT left_shoulder
          {
            OFFSET 12.931292 5.246330 -1.926808
            CHANNELS 3 Zrotation Yrotation Xrotation
            JOINT left_elbow
            {
              OFFSET 29.195313 -2.161876 -2.258029
              CHANNELS 3 Zrotation Yrotation Xrotation
              End Site
              {
                OFFSET 29.087969 1.565127 -0.710038
              }
            }
          }
        }
        JOINT right_collar
        {
          OFFSET -9.194624 12.359107 -2.780164
          CHANNELS 3 Zrotation Yrotation Xrotation
          JOINT right_shoulder
          {
            OFFSET -12.145171 5.608093 -0.527714
            CHANNELS 3 Zrotation Yrotation Xrotation
            JOINT right_elbow
            {
              OFFSET -29.378825 -2.146991 -3.149714
              CHANNELS 3 Zrotation Yrotation Xrotation
              End Site
              {
                OFFSET -29.867520 1.127055 -0.601422
              }
            }
          }
        }
      }
    }
  }
}
MOTION
Frames: 6
Frame Time: 0.008333
2.147394 105.826674 16.585548 -176.899638 -0.760411 175.139449 3.494527 0.275388 3.823276 -2.787402 -6.751290 -2.021194 -0.154592 9.163565 1.308224 0.000000 0.000000 0.000000 2.882341 -0.329765 -1.970606 0.942851 0.726415 10.148706 1.083817 -5.820387 -6.205844 0.000000 0.000000 0.000000 -2.003152 3.510487 0.677822 2.643412 -2.762438 17.487197 0.035730 0.961578 -4.821816 -0.904103 5.311145 23.900827 3.857897 3.116371 6.157567 -20.793026 -3.744496 5.574297 -55.129481 -19.880262 8.764086 18.654047 -18.004577 -5.958531 18.354945 4.162039 5.857228 66.358949 12.626166 7.369843 -22.127310 32.250620 -17.047530
2.093431 105.826497 16.716181 -176.870260 -0.570610 175.214136 3.536952 0.326939 3.957543 -2.782284 -6.711626 -2.508792 -0.358682 9.219171 1.274483 0.000000 0.000000 0.000000 2.921217 -0.126932 -2.398026 0.964590 0.657763 10.641864 0.900874 -5.757557 -6.494174 0.000000 0.000000 0.000000 -2.090156 3.452092 0.825054 2.619351 -2.697565 17.564614 0.077726 0.981310 -4.939153 -0.954255 5.470676 23.517682 3.852784 3.023967 5.824113 -20.742955 -4.163197 5.641083 -54.864402 -20.128925 8.872612 18.483013 -18.674074 -5.397426 18.408046 4.532401 5.914754 66.216203 13.010900 7.309845 -22.534907 32.901003 -17.280226
2.032825 105.831823 16.845101 -176.852062 -0.376172 175.267995 3.550705 0.367927 4.102423 -2.761509 -6.664452 -2.967588 -0.537522 9.287282 1.302998 0.000000 0.000000 0.000000 2.950596 0.078752 -2.801306 0.977567 0.588520 11.139920 0.733030 -5.681670 -6.805833 0.000000 0.000000 0.000000 -2.174461 3.393164 0.969249 2.589596 -2.640947 17.697070 0.120345 1.005480 -5.089429 -1.016601 5.660472 23.128984 3.878535 2.934975 5.511068 -20.707264 -4.601358 5.714636 -54.572547 -20.407276 8.934027 18.335559 -19.303751 -4.931743 18.477923 4.935835 6.022456 66.006400 13.441874 7.214412 -22.940120 33.538504 -17.520102
1.974265 105.836912 16.971626 -176.845662 -0.200386 175.328636 3.542718 0.378310 4.213748 -2.741510 -6.575971 -3.381160 -0.645108 9.329250 1.389135 0.000000 0.000000 0.000000 2.972085 0.265013 -3.197074 0.983208 0.526512 11.621515 0.571346 -5.614819 -7.169011 0.000000 0.000000 0.000000 -2.264563 3.351471 1.116304 2.557929 -2.592798 17.818480 0.164159 1.019493 -5.259091 -1.092633 5.818135 22.757987 3.913950 2.845360 5.176073 -20.668762 -5.041953 5.772242 -54.259857 -20.680551 9.004125 18.203158 -19.915340 -4.475668 18.559776 5.343826 6.095617 65.795565 13.843586 7.166478 -23.415366 34.116712 -17.783942
1.919235 105.844144 17.096966 -176.819496 -0.014034 175.396134 3.557724 0.385867 4.309082 -2.726051 -6.490141 -3.776033 -0.746867 9.395491 1.493825 0.000000 0.000000 0.000000 3.022836 0.464289 -3.587723 0.982508 0.474381 12.072905 0.430754 -5.540794 -7.516468 0.000000 0.000000 0.000000 -2.319985 3.300450 1.258885 2.520204 -2.539241 17.921823 0.210845 1.040575 -5.418521 -1.190148 5.976723 22.408505 3.947233 2.764129 4.810621 -20.642799 -5.485969 5.818876 -53.926555 -20.960831 9.028125 18.068829 -20.473089 -4.050380 18.605720 5.770717 6.177391 65.590825 14.279357 7.075283 -23.882448 34.627856 -18.016314
1.863943 105.851288 17.216364 -176.808268 0.172189 175.451595 3.548216 0.383859 4.404382 -2.702083 -6.374793 -4.137307 -0.829130 9.430968 1.613219 0.000000 0.000000 0.000000 3.063351 0.632594 -3.929755 0.973918 0.452259 12.465885 0.301570 -5.447955 -7.852831 0.000000 0.000000 0.000000 -2.382619 3.271713 1.402225 2.486368 -2.487252 18.041658 0.256948 1.063232 -5.604985 -1.282905 6.114612 22.068881 3.986970 2.686892 4.462717 -20.593646 -5.947383 5.859911 -53.588577 -21.241817 9.112562 17.936259 -20.984527 -3.570978 18.644998 6.200643 6.245344 65.361622 14.689569 7.028246 -24.368820 35.127075 -18.227791
